<?xml version="1.0" encoding="UTF-8" standalone="no"?>
<!DOCTYPE svg PUBLIC "-//W3C//DTD SVG 1.1//EN" "http://www.w3.org/Graphics/SVG/1.1/DTD/svg11.dtd">
<!-- Created with Vectornator (http://vectornator.io/) -->
<svg height="1024.0px" stroke-miterlimit="10" style="fill-rule:nonzero;clip-rule:evenodd;stroke-linecap:round;stroke-linejoin:round;" version="1.1" viewBox="0 0 1024 1024" width="1024.0px" xml:space="preserve" xmlns="http://www.w3.org/2000/svg" xmlns:xlink="http://www.w3.org/1999/xlink">
<defs>
<radialGradient cx="468.79" cy="299.507" gradientTransform="matrix(1.90795 0 0 1.80054 -625.726 -312.822)" gradientUnits="userSpaceOnUse" id="RadialGradient" r="469.01">
<stop offset="0" stop-color="#a2a2a2" stop-opacity="0.215373"/>
<stop offset="1" stop-color="#5a5a5a"/>
</radialGradient>
<filter color-interpolation-filters="sRGB" filterUnits="userSpaceOnUse" height="967.859" id="Filter" width="971.934" x="45.946" y="63.6481">
<feDropShadow dx="13.4034" dy="14.8442" flood-color="#000000" flood-opacity="0.333" in="SourceGraphic" result="Shadow" stdDeviation="20"/>
</filter>
<radialGradient cx="267.022" cy="170.058" gradientTransform="matrix(1.87499 0 0 1.91983 -419.681 -269.035)" gradientUnits="userSpaceOnUse" id="RadialGradient_2" r="406.394">
<stop offset="0" stop-color="#4a6493"/>
<stop offset="0.505593" stop-color="#293852"/>
<stop offset="1" stop-color="#000000"/>
</radialGradient>
<filter color-interpolation-filters="sRGB" filterUnits="userSpaceOnUse" height="715.416" id="Filter_2" width="688.895" x="7.3913" y="13.9835">
<feDropShadow dx="15.4142" dy="25.7372" flood-color="#000000" flood-opacity="0.333" in="SourceGraphic" result="Shadow" stdDeviation="20"/>
</filter>
<radialGradient cx="335.604" cy="646.389" gradientTransform="matrix(1.03148 0 0 1.04572 -146.708 49.6848)" gradientUnits="userSpaceOnUse" id="RadialGradient_3" r="170.003">
<stop offset="0" stop-color="#8fd0ff" stop-opacity="0.731502"/>
<stop offset="0.46085" stop-color="#0093fc" stop-opacity="0.705976"/>
<stop offset="1" stop-color="#0080dd"/>
</radialGradient>
<filter color-interpolation-filters="sRGB" filterUnits="userSpaceOnUse" height="285.442" id="Filter_3" width="285" x="142.505" y="674.84">
<feDropShadow dx="22.8362" dy="25.291" flood-color="#000000" flood-opacity="0.65114" in="SourceGraphic" result="Shadow" stdDeviation="25"/>
</filter>
<radialGradient cx="632.958" cy="562.491" gradientTransform="matrix(1.18757 0 0 1.42228 -266.606 -67.8006)" gradientUnits="userSpaceOnUse" id="RadialGradient_4" r="235.07">
<stop offset="0" stop-color="#8fd0ff" stop-opacity="0.731502"/>
<stop offset="0.46085" stop-color="#0093fc" stop-opacity="0.705976"/>
<stop offset="1" stop-color="#0080dd"/>
</radialGradient>
<filter color-interpolation-filters="sRGB" filterUnits="userSpaceOnUse" height="215.805" id="Filter_4" width="555.568" x="380.59" y="698.416">
<feDropShadow dx="13.457" dy="14.9035" flood-color="#000000" flood-opacity="0.333" in="SourceGraphic" result="Shadow" stdDeviation="15"/>
</filter>
</defs>
<clipPath id="ArtboardFrame">
<rect height="1024" width="1024" x="0" y="0"/>
</clipPath>
<g clip-path="url(#ArtboardFrame)" id="图层-1">
<path d="M179.408 98.8039L857.611 98.8039C911.108 98.8039 954.476 139.73 954.476 190.216L954.476 875.251C954.476 925.736 911.108 966.663 857.611 966.663L179.408 966.663C125.911 966.663 82.5426 925.736 82.5426 875.251L82.5426 190.216C82.5426 139.73 125.911 98.8039 179.408 98.8039Z" fill="url(#RadialGradient)" fill-rule="nonzero" filter="url(#Filter)" stroke="none"/>
<path d="M41.9771 270.655C41.9771 151.372 93.397 86.2597 184.476 62.3532C314.536 28.2149 344.32 35.8528 458.528 51.5642C591.92 69.9148 633.733 154.215 630.723 257.216C627.239 376.446 479.559 653.662 353.225 653.662C226.891 653.662 41.9771 389.938 41.9771 270.655Z" fill="url(#RadialGradient_2)" fill-rule="nonzero" filter="url(#Filter_2)" stroke="none"/>
<path d="M182.169 792.27C182.169 747.965 217.986 712.049 262.169 712.049C306.351 712.049 342.169 747.965 342.169 792.27C342.169 836.575 306.351 872.492 262.169 872.492C217.986 872.492 182.169 836.575 182.169 792.27Z" fill="url(#RadialGradient_3)" fill-rule="nonzero" filter="url(#Filter_3)" stroke="none"/>
<path d="M438.631 721.012L851.204 721.012C869.98 721.012 885.201 736.159 885.201 754.842L885.201 827.988C885.201 846.672 869.98 861.818 851.204 861.818L438.631 861.818C419.855 861.818 404.633 846.672 404.633 827.988L404.633 754.842C404.633 736.159 419.855 721.012 438.631 721.012Z" fill="url(#RadialGradient_4)" fill-rule="nonzero" filter="url(#Filter_4)" stroke="none"/>
</g>
</svg>
